# AST/ASF file generated using VICON BodyLanguage
# -----------------------------------------------
:version 1.10
:name VICON
:units
  mass 1.0
  length 0.45
  angle deg
:documentation
   .ast/.asf automatically generated from VICON data using
   VICON BodyBuilder and BodyLanguage model FoxedUp or BRILLIANT.MOD
:root
   order TX TY TZ RX RY RZ
   axis XYZ
   position 0 0 0  
   orientation 0 0 0 
:bonedata
  begin
     id 1 
     name lhipjoint
     direction 0.521452 -0.77106 0.36545 
     length 2.0933 
     axis 0 0 0  XYZ
  end
  begin
     id 2 
     name lfemur
     direction 0.34202 -0.939693 0  
     length 6.83441  
     axis 0 0 20  XYZ
    dof rx ry rz
    limits (-160.0 20.0)
           (-70.0 70.0)
           (-60.0 70.0)
  end
  begin
     id 3 
     name ltibia
     direction 0.34202 -0.939693 0   
     length 7.28749   
     axis 0 0 20   XYZ
    dof rx
    limits (-10.0 170.0)
  end
  begin
     id 4 
     name lfoot
     direction 0.100608 -0.276418 0.955757   
     length 1.52195   
     axis -90 7.62852e-016 20   XYZ
    dof rx rz
    limits (-45.0 90.0)
           (-70.0 20.0)
  end
  begin
     id 5 
     name ltoes
     direction 1.53558e-011 -4.21907e-011 1   
     length 0.770459   
     axis -90 7.62852e-016 20   XYZ
    dof rx
    limits (-90.0 20.0)
  end
  begin
     id 6 
     name rhipjoint
     direction -0.488071 -0.788702 0.373812   
     length 2.04648  
     axis 0 0 0  XYZ 
  end
  begin
     id 7 
     name rfemur
     direction -0.34202 -0.939693 0   
     length 6.92583   
     axis 0 0 -20   XYZ
    dof rx ry rz
    limits (-160.0 20.0)
           (-70.0 70.0)
           (-70.0 60.0)
  end
  begin
     id 8 
     name rtibia
     direction -0.34202 -0.939693 0   
     length 7.41043   
     axis 0 0 -20   XYZ
    dof rx
    limits (-10.0 170.0)
 end
 begin
     id 9 
     name rfoot
     direction -0.0784433 -0.215521 0.973343   
     length 1.67708  
     axis -90 -7.62852e-016 -20   XYZ
    dof rx rz
    limits (-45.0 90.0)
           (-20.0 70.0)
  end
  begin
     id 10 
     name rtoes
     direction -1.53551e-011 -4.21842e-011 1   
     length 0.849787   
     axis -90 -7.62852e-016 -20   XYZ
    dof rx
    limits (-90.0 20.0)
  end
  begin
     id 11 
     name lowerback
     direction -0.0122332 0.997575 -0.0685192   
     length 1.98724   
     axis 0 0 0   XYZ
    dof rx ry rz
    limits (-20.0 45.0)
           (-30.0 30.0)
           (-30.0 30.0)
  end
  begin
     id 12 
     name upperback
     direction 0.0182347 0.999724 -0.0148421   
     length 1.99029   
     axis 0 0 0   XYZ
    dof rx ry rz
    limits (-20.0 45.0)
           (-30.0 30.0)
           (-30.0 30.0)
  end
  begin
     id 13 
     name thorax
     direction 0.0242908 0.99956 0.0170184   
     length 1.99573   
     axis 0 0 0   XYZ
    dof rx ry rz
    limits (-20.0 45.0)
           (-30.0 30.0)
           (-30.0 30.0)
  end
  begin
     id 14 
     name lowerneck
     direction 0.0654488 0.985533 0.156338   
     length 1.4285   
     axis 0 0 0   XYZ
    dof rx ry rz
    limits (-20.0 45.0)
           (-30.0 30.0)
           (-30.0 30.0)
  end
  begin
     id 15 
     name upperneck
     direction -0.02953 0.998556 -0.0448842   
     length 1.44709   
     axis 0 0 0   XYZ
    dof rx ry rz
    limits (-20.0 45.0)
           (-30.0 30.0)
           (-30.0 30.0)
  end
  begin
     id 16
     name head
     direction -0.0155588 0.999386 -0.0314063  
     length 1.44689  
     axis 0 0 0   XYZ
    dof rx ry rz
    limits (-20.0 45.0)
           (-30.0 30.0)
           (-30.0 30.0)
  end
  begin
     id 17 
     name lclavicle
     direction 0.968229 0.236071 -0.0824755  
     length 3.60593  
     axis 0 0 0   XYZ
    dof ry rz
    limits (-20.0 10.0)
           (0.0 20.0)
  end
  begin
     id 18 
     name lhumerus
     direction 1 -4.48968e-011 7.8138e-029   
     length 5.06035   
     axis 180 -30 -90   XYZ
    dof rx ry rz
    limits (-60.0 90.0)
           (-90.0 90.0)
           (-90.0 90.0)
  end
  begin
     id 19
     name lradius
     direction 1 -4.48967e-011 9.02887e-028   
     length 3.1478   
     axis 180 -30 -90   XYZ
    dof rx
    limits (-10.0 170.0)
  end
  begin
     id 20
     name lwrist
     direction 1 -4.48961e-011 7.20928e-028   
     length 1.5739   
     axis -5.52449e-016 90 90   XYZ
    dof ry
    limits (-180.0 0.0)
 end
  begin
     id 21 
     name lhand
     direction 1 -4.48972e-011 1.44186e-027   
     length 0.606747   
     axis -9.20027e-016 90 90   XYZ
    dof rx rz
    limits (-90.0 90.0)
           (-45.0 45.0)
  end
  begin
     id 22 
     name lfingers
     direction 1 -4.48943e-011 2.88371e-027   
     length 0.489175   
     axis -1.84005e-015 90 90   XYZ
    dof rx
    limits (0.0 90.0)
  end
  begin
     id 23
     name lthumb
     direction 0.707107 -6.34917e-011 0.707107   
     length 0.70236   
     axis -90 45 2.85299e-015   XYZ
    dof rx rz
    limits (-45.0 45.0)
           (-45.0 45.0)
  end
  begin
     id 24 
     name rclavicle
     direction -0.978165 0.207816 0.0022268   
     length 3.35425  
     axis 0 0 0   XYZ 
    dof ry rz
    limits (-10.0 20.0)
           (-20.0 0.0)
  end
  begin
     id 25 
     name rhumerus
     direction -1 -4.48964e-011 -4.02159e-027  
     length 5.12273   
     axis 180 30 90   XYZ
    dof rx ry rz
    limits (-90.0 60.0)
           (-90.0 90.0)
           (-90.0 90.0)
  end
  begin
     id 26 
     name rradius
     direction -1 -4.48966e-011 1.62746e-027   
     length 3.422   
     axis 180 30 90   XYZ
    dof rx
    limits (-10.0 170.0)
  end
  begin
     id 27 
     name rwrist
     direction -1 -4.4896e-011 7.20928e-028   
     length 1.711   
     axis -5.52449e-016 -90 -90   XYZ
    dof ry
    limits (-180.0 0.0)
  end
  begin
     id 28
     name rhand
     direction -1 -4.48979e-011 1.44186e-027   
     length 0.704599   
     axis -9.20027e-016 -90 -90   XYZ
    dof rx rz
    limits (-90.0 90.0)
           (-45.0 45.0)
  end
  begin
     id 29
     name rfingers
     direction -1 -4.48962e-011 2.88371e-027   
     length 0.568066   
     axis -1.84005e-015 -90 -90   XYZ
    dof rx
    limits (0.0 90.0)
  end
  begin
     id 30
     name rthumb
     direction -0.707107 -6.34949e-011 0.707107   
     length 0.815633   
     axis -90 -45 -2.85299e-015   XYZ
    dof rx rz
    limits (-45.0 45.0)
           (-45.0 45.0)
  end
:hierarchy
  begin
    root lhipjoint rhipjoint lowerback
    lhipjoint lfemur
    lfemur ltibia
    ltibia lfoot
    lfoot ltoes
    rhipjoint rfemur
    rfemur rtibia
    rtibia rfoot
    rfoot rtoes
    lowerback upperback
    upperback thorax
    thorax lowerneck lclavicle rclavicle
    lowerneck upperneck
    upperneck head
    lclavicle lhumerus
    lhumerus lradius
    lradius lwrist
    lwrist lhand lthumb
    lhand lfingers
    rclavicle rhumerus
    rhumerus rradius
    rradius rwrist
    rwrist rhand rthumb
    rhand rfingers
  end

#!OML:ASF E:\id_vita\Project 1\Capture day 1\Session 1\Male1.ASF
:FULLY-SPECIFIED
:DEGREES
297
root 2.10107 27.0527 -0.608192 4.73794 84.7416 0.815271
lowerback 2.44749 -0.482013 -7.60767
upperback 3.0052 -0.620769 -1.88054
thorax 1.8043 -0.404302 2.32286
lowerneck -1.82526 3.85982 4.92696
upperneck 5.77637 4.84972 3.93804
head 2.14648 2.65791 0.530831
rclavicle -2.26615e-014 -3.57812e-014
rhumerus -37.2243 -1.14878 -88.961
rradius 34.9662
rwrist -2.78409
rhand -20.0094 36.2415
rfingers 7.12502
rthumb 6.33079 6.35611
lclavicle -2.26615e-014 -3.57812e-014
lhumerus -25.8146 11.691 78.4662
lradius 25.0408
lwrist 0.972401
lhand -13.0414 44.1048
lfingers 7.12502
lthumb 13.0533 73.6764
rfemur -14.5365 -0.670918 18.2319
rtibia 51.2958
rfoot -7.3057 6.35225
rtoes 16.3335
lfemur -21.1968 5.21865 -21.469
ltibia 33.2026
lfoot -20.7968 0.237666
ltoes 33.6895
298
root 2.12617 27.0558 -0.62204 7.04575 84.3348 3.12663
lowerback 2.03264 -0.399121 -7.9059
upperback 3.41717 -0.431407 -2.00852
thorax 2.45363 -0.340953 2.3485
lowerneck -2.29149 3.77561 4.79937
upperneck 5.50793 4.711 4.07983
head 2.13455 2.5852 0.598945
rclavicle 1.51076e-014 -1.59028e-015
rhumerus -36.4909 -1.32491 -88.987
rradius 35.0961
rwrist -2.76795
rhand -20.0834 36.3103
rfingers 7.12502
rthumb 6.25932 6.42273
lclavicle 1.51076e-014 -1.59028e-015
lhumerus -24.7568 11.2744 78.7242
lradius 25.2948
lwrist 1.13195
lhand -13.2563 43.6067
lfingers 7.12502
lthumb 12.8461 73.1914
rfemur -15.1945 -0.875793 17.761
rtibia 52.1804
rfoot -6.25761 7.23863
rtoes 18.1208
lfemur -20.989 5.31531 -21.7955
ltibia 33.0551
lfoot -20.7534 0.46703
ltoes 34.153
299
root 2.14739 27.0605 -0.633849 7.79641 84.1252 3.86978
lowerback 1.92792 -0.385626 -8.02777
upperback 3.57223 -0.384857 -2.10547
thorax 2.6719 -0.327855 2.31384
lowerneck -2.65387 3.70732 4.72473
upperneck 5.48524 4.59278 4.19241
head 2.18772 2.53063 0.651816
rclavicle 1.80894e-014 3.18055e-015
rhumerus -36.2481 -1.45254 -89.0313
rradius 35.2725
rwrist -2.70298
rhand -19.9476 36.3215
rfingers 7.12502
rthumb 6.39045 6.4379
lclavicle 1.80894e-014 3.18055e-015
lhumerus -24.2304 10.9517 78.8673
lradius 25.7188
lwrist 1.24382
lhand -13.5262 43.4947
lfingers 7.12502
lthumb 12.5859 73.0956
rfemur -15.7971 -1.16442 17.4928
rtibia 53.0347
rfoot -5.22728 7.99565
rtoes 18.5302
lfemur -20.7915 5.28971 -21.9412
ltibia 32.8509
lfoot -20.6156 0.609477
ltoes 34.6504
300
root 2.16889 27.0692 -0.642104 8.75812 84.1451 4.90761
lowerback 2.27876 -0.437532 -8.19055
upperback 3.39439 -0.500819 -2.20509
thorax 2.30221 -0.370783 2.30511
lowerneck -2.45931 3.68383 4.70998
upperneck 5.63455 4.56462 4.36461
head 2.19726 2.52528 0.706068
rclavicle 1.61016e-014 4.13472e-014
rhumerus -36.7739 -1.42601 -89.1541
rradius 35.5674
rwrist -2.71018
rhand -19.7966 36.3279
rfingers 7.12502
rthumb 6.53617 6.44877
lclavicle 1.61016e-014 4.13472e-014
lhumerus -24.4119 10.4185 78.8398
lradius 26.2825
lwrist 1.54141
lhand -13.713 43.6934
lfingers 7.12502
lthumb 12.4058 73.3052
rfemur -16.2367 -1.50065 17.25
rtibia 53.8437
rfoot -4.18961 8.64775
rtoes 19.9132
lfemur -20.5115 5.24243 -22.0836
ltibia 32.6214
lfoot -20.4696 0.542632
ltoes 34.7944
301
root 2.19066 27.0754 -0.647835 9.94647 84.0194 6.14314
lowerback 2.40664 -0.416653 -8.4683
upperback 3.31921 -0.490614 -2.28217
thorax 2.15545 -0.36295 2.381
lowerneck -1.91638 3.70625 4.79775
upperneck 5.33349 4.64605 4.29332
head 2.00412 2.55083 0.652184
rclavicle -1.72943e-014 1.59028e-015
rhumerus -37.1501 -1.53064 -89.2005
rradius 35.8525
rwrist -2.75785
rhand -19.8185 36.1615
rfingers 7.12502
rthumb 6.51503 6.28166
lclavicle -1.72943e-014 1.59028e-015
lhumerus -24.5597 9.41823 78.9636
lradius 27.0613
lwrist 2.36266
lhand -14.0006 43.8454
lfingers 7.12502
lthumb 12.1285 73.4738
rfemur -16.7126 -1.66205 16.9627
rtibia 54.596
rfoot -3.17754 9.22467
rtoes 22.173
lfemur -20.2774 5.26011 -22.2582
ltibia 32.4295
lfoot -20.3148 0.510594
ltoes 34.972
302
root 2.21066 27.0782 -0.655407 10.614 83.722 6.82966
lowerback 2.4839 -0.339266 -8.68335
upperback 3.29256 -0.395954 -2.36653
thorax 2.07763 -0.31464 2.41327
lowerneck -2.06185 3.67196 4.83786
upperneck 5.405 4.57897 4.51045
head 2.0496 2.5292 0.71707
rclavicle -6.95746e-015 -2.70347e-014
rhumerus -37.3272 -1.59503 -89.269
rradius 36.1167
rwrist -2.91672
rhand -19.9705 35.7483
rfingers 7.12502
rthumb 6.36826 5.86407
lclavicle -6.95746e-015 -2.70347e-014
lhumerus -24.4719 8.75289 79.0641
lradius 27.6763
lwrist 2.84815
lhand -14.2517 43.6716
lfingers 7.12502
lthumb 11.8864 73.3142
rfemur -17.2093 -1.66113 16.6773
rtibia 55.2716
rfoot -2.33688 9.80906
rtoes 23.1129
lfemur -20.0799 5.28097 -22.4027
ltibia 32.278
lfoot -20.1619 0.573996
ltoes 35.6111
303
root 2.23006 27.0804 -0.665814 9.82148 83.4091 6.08282
lowerback 2.63673 -0.288711 -8.74991
upperback 3.20019 -0.354211 -2.38681
thorax 1.89157 -0.286138 2.43068
lowerneck -1.71464 3.77842 4.92496
upperneck 5.48758 4.74052 4.56718
head 2.01537 2.61313 0.717727
rclavicle -1.61016e-014 -4.29375e-014
rhumerus -37.6226 -1.34735 -89.4297
rradius 36.4182
rwrist -3.24031
rhand -20.2128 35.5676
rfingers 7.12502
rthumb 6.13442 5.67644
lclavicle -1.61016e-014 -4.29375e-014
lhumerus -24.3701 8.6793 79.0603
lradius 27.9944
lwrist 2.87736
lhand -14.2323 43.6027
lfingers 7.12502
lthumb 11.9051 73.2443
rfemur -17.6405 -1.62261 16.5533
rtibia 55.866
rfoot -1.81846 10.3605
rtoes 22.571
lfemur -19.8776 5.2633 -22.3831
ltibia 32.1883
lfoot -20.1242 0.78768
ltoes 36.2087
304
root 2.25401 27.086 -0.674713 7.53746 83.0875 3.84629
lowerback 2.77763 -0.262079 -8.70616
upperback 3.05624 -0.351588 -2.29748
thorax 1.66122 -0.275281 2.50093
lowerneck -1.0883 3.73016 4.80173
upperneck 5.46359 4.72344 4.6995
head 1.88905 2.59862 0.763051
rclavicle 1.19271e-015 1.59028e-014
rhumerus -38.0459 -1.00744 -89.5497
rradius 36.6321
rwrist -3.38969
rhand -20.284 35.8938
rfingers 7.12502
rthumb 6.06568 6.00066
lclavicle 1.19271e-015 1.59028e-014
lhumerus -24.5913 8.61183 79.0519
lradius 28.5128
lwrist 3.08166
lhand -14.1681 43.9032
lfingers 7.12502
lthumb 11.967 73.5411
rfemur -17.995 -1.48857 16.6516
rtibia 56.3862
rfoot -1.74936 10.7795
rtoes 20.9896
lfemur -19.6889 5.24628 -22.1497
ltibia 32.1675
lfoot -20.1637 1.14733
ltoes 36.5625
305
root 2.27495 27.0942 -0.680761 5.6155 82.8073 1.90478
lowerback 2.70461 -0.169038 -8.51412
upperback 3.13641 -0.209106 -2.35719
thorax 1.76774 -0.205103 2.33048
lowerneck -1.56406 3.92551 5.3123
upperneck 5.52012 4.94676 4.27482
head 2.0178 2.716 0.564324
rclavicle -1.82882e-014 -7.95139e-015
rhumerus -38.044 -1.36654 -89.6406
rradius 36.7855
rwrist -3.12561
rhand -19.5637 36.8216
rfingers 7.12502
rthumb 6.76104 6.94956
lclavicle -1.82882e-014 -7.95139e-015
lhumerus -24.3374 7.91272 79.056
lradius 29.0649
lwrist 3.62059
lhand -14.2655 43.9747
lfingers 7.12502
lthumb 11.8731 73.6181
rfemur -18.3828 -1.31658 16.7525
rtibia 56.8516
rfoot -2.07786 11.1813
rtoes 19.7468
lfemur -19.6078 5.26337 -21.9278
ltibia 32.18
lfoot -20.233 1.49292
ltoes 36.6493
306
root 2.29106 27.096 -0.687293 4.92596 82.5139 1.15702
lowerback 2.7125 -0.0478055 -8.45035
upperback 3.15605 -0.0439587 -2.43112
thorax 1.76601 -0.120311 2.21697
lowerneck -1.77845 3.89402 5.41483
upperneck 5.50848 4.88667 4.2321
head 2.05627 2.68893 0.537672
rclavicle -4.77083e-015 -1.43125e-014
rhumerus -38.0564 -1.75802 -89.6385
rradius 36.9247
rwrist -2.934
rhand -17.9955 38.7035
rfingers 7.12502
rthumb 8.27463 8.88559
lclavicle -4.77083e-015 -1.43125e-014
lhumerus -24.1378 7.20912 79.1106
lradius 29.6132
lwrist 4.13014
lhand -14.3532 43.7022
lfingers 7.12502
lthumb 11.7885 73.3504
rfemur -18.8287 -1.18522 16.6926
rtibia 57.2918
rfoot -2.64545 11.7498
rtoes 18.7593
lfemur -19.5727 5.23985 -21.8667
ltibia 32.1837
lfoot -20.3321 1.86176
ltoes 36.4747
307
root 2.31347 27.0978 -0.694602 4.04648 82.309 0.315238
lowerback 2.6572 -0.037176 -8.4023
upperback 3.29299 -0.0108903 -2.43448
thorax 1.93636 -0.111176 2.18585
lowerneck -2.34828 4.04945 5.55527
upperneck 5.56953 5.04548 4.09587
head 2.18823 2.77401 0.491453
rclavicle 2.20651e-014 -1.11319e-014
rhumerus -37.9306 -1.5895 -89.7603
rradius 37.0805
rwrist -3.09465
rhand -19.4159 37.1249
rfingers 7.12502
rthumb 6.90367 7.25745
lclavicle 2.20651e-014 -1.11319e-014
lhumerus -23.8931 6.97272 79.1495
lradius 30.1914
lwrist 4.55126
lhand -14.3986 43.8796
lfingers 7.12502
lthumb 11.7448 73.5303
rfemur -19.1107 -1.19728 16.6717
rtibia 57.6685
rfoot -3.44619 12.1428
rtoes 16.1448
lfemur -19.3816 5.19749 -21.778
ltibia 32.148
lfoot -20.4182 2.09746
ltoes 36.3565
